# xmcd CD database file
#
# Track frame offsets:
#	150
#	12253
#	26772
#	49128
#	62154
#	84586
#	98041
#	115626
#	128966
#	145336
#	156560
#	174028
#	193833
#	211083
#	221831
#	237625
#	260300
#	289286
#	305888
#	321679
#
# Disc length: 4512 seconds
#
# Revision: 0
# Processed by: cddbd v1.5.1PL0 Copyright (c) Steve Scherf et al.
# Submitted via: CDex 1.50beta9
#
DISCID=36119e14
DTITLE=Gram Parsons - GP (1-11) Grievous Angel (12-20)
DYEAR=1900
DGENRE=Country
TTITLE0=Gram Parsons - Still Feeling Blue
TTITLE1=Gram Parsons - We'll Sweep Out The Ashes In The Morning
TTITLE2=Gram Parsons - A Song For You
TTITLE3=Gram Parsons - Streets Of Baltimore
TTITLE4=Gram Parsons - She
TTITLE5=Gram Parsons - That's All It Took
TTITLE6=Gram Parsons - The New Soft Shoe
TTITLE7=Gram Parsons - Kiss The Children
TTITLE8=Gram Parsons - Cry One More Time
TTITLE9=Gram Parsons - How Much I've Lied
TTITLE10=Gram Parsons - Big Mouth Blues
TTITLE11=Gram Parsons - Return Of The Grievous Angel
TTITLE12=Gram Parsons - Hearts On Fire
TTITLE13=Gram Parsons - I Can't Dance
TTITLE14=Gram Parsons - Brass Buttons
TTITLE15=Gram Parsons - $1000 Wedding
TTITLE16=Gram Parsons - Medley Live From Northern Quebec
TTITLE17=Gram Parsons - Love Hurts
TTITLE18=Gram Parsons - Ooh Las Vegas
TTITLE19=Gram Parsons - In My Hour Of Darkness
EXTD=
EXTT0=
EXTT1=
EXTT2=
EXTT3=
EXTT4=
EXTT5=
EXTT6=
EXTT7=
EXTT8=
EXTT9=
EXTT10=
EXTT11=
EXTT12=
EXTT13=
EXTT14=
EXTT15=
EXTT16=
EXTT17=
EXTT18=
EXTT19=
PLAYORDER=
